<svg width="119" height="20" viewBox="0 0 119 20" fill="none" xmlns="http://www.w3.org/2000/svg">
<path d="M7.48 10.74C7.48 9.71333 7.27333 8.9 6.86 8.3C6.46 7.7 5.82 7.4 4.94 7.4C4.54 7.4 4.16 7.46 3.8 7.58C3.45333 7.7 3.17333 7.83333 2.96 7.98V14C3.13333 14.04 3.35333 14.08 3.62 14.12C3.9 14.1467 4.23333 14.16 4.62 14.16C5.51333 14.16 6.21333 13.86 6.72 13.26C7.22667 12.6467 7.48 11.8067 7.48 10.74ZM9.96 10.78C9.96 11.62 9.83333 12.38 9.58 13.06C9.34 13.7267 8.98667 14.3 8.52 14.78C8.06667 15.26 7.51333 15.6267 6.86 15.88C6.20667 16.1333 5.46667 16.26 4.64 16.26C3.84 16.26 3.07333 16.2 2.34 16.08C1.62 15.96 1.02 15.8267 0.54 15.68V0.879999L2.96 0.48V5.9C3.24 5.75333 3.58 5.62 3.98 5.5C4.39333 5.38 4.84667 5.32 5.34 5.32C6.07333 5.32 6.72667 5.45333 7.3 5.72C7.88667 5.97333 8.37333 6.34 8.76 6.82C9.14667 7.3 9.44 7.88 9.64 8.56C9.85333 9.22667 9.96 9.96667 9.96 10.78ZM12.4541 5.88C12.9207 5.74667 13.5274 5.62 14.2741 5.5C15.0207 5.38 15.8474 5.32 16.7541 5.32C17.6074 5.32 18.3207 5.44 18.8941 5.68C19.4674 5.90667 19.9207 6.23333 20.2541 6.66C20.6007 7.07333 20.8407 7.58 20.9741 8.18C21.1207 8.76667 21.1941 9.41333 21.1941 10.12V16H18.7741V10.5C18.7741 9.94 18.7341 9.46667 18.6541 9.08C18.5874 8.68 18.4674 8.36 18.2941 8.12C18.1341 7.86667 17.9074 7.68667 17.6141 7.58C17.3341 7.46 16.9874 7.4 16.5741 7.4C16.2674 7.4 15.9474 7.42 15.6141 7.46C15.2807 7.5 15.0341 7.53333 14.8741 7.56V16H12.4541V5.88ZM32.7333 15.68C32.2666 15.8 31.6599 15.92 30.9133 16.04C30.1666 16.1733 29.3466 16.24 28.4533 16.24C27.6133 16.24 26.9066 16.12 26.3333 15.88C25.7733 15.64 25.3199 15.3067 24.9733 14.88C24.6399 14.4533 24.3999 13.9467 24.2533 13.36C24.1066 12.76 24.0333 12.1067 24.0333 11.4V5.54H26.4533V11.02C26.4533 12.14 26.6133 12.94 26.9333 13.42C27.2666 13.9 27.8399 14.14 28.6533 14.14C28.9466 14.14 29.2533 14.1267 29.5733 14.1C29.9066 14.0733 30.1533 14.04 30.3133 14V5.54H32.7333V15.68ZM37.7134 10.5C37.7134 11.5267 37.9334 12.28 38.3734 12.76C38.8268 13.2267 39.4068 13.46 40.1134 13.46C40.5001 13.46 40.8601 13.4067 41.1934 13.3C41.5401 13.1933 41.8201 13.0667 42.0334 12.92V7.5C41.8601 7.46 41.6468 7.42667 41.3934 7.4C41.1401 7.36 40.8201 7.34 40.4334 7.34C39.5534 7.34 38.8801 7.63333 38.4134 8.22C37.9468 8.79333 37.7134 9.55333 37.7134 10.5ZM44.4534 14.94C44.4534 16.6067 44.0268 17.8267 43.1734 18.6C42.3334 19.3733 41.0401 19.76 39.2934 19.76C38.6534 19.76 38.0268 19.7067 37.4134 19.6C36.8134 19.4933 36.2668 19.3533 35.7734 19.18L36.2134 17.12C36.6268 17.2933 37.0934 17.4333 37.6134 17.54C38.1468 17.6467 38.7201 17.7 39.3334 17.7C40.3068 17.7 41.0001 17.5 41.4134 17.1C41.8268 16.7 42.0334 16.1067 42.0334 15.32V14.92C41.7934 15.04 41.4734 15.16 41.0734 15.28C40.6868 15.4 40.2401 15.46 39.7334 15.46C39.0668 15.46 38.4534 15.3533 37.8934 15.14C37.3468 14.9267 36.8734 14.6133 36.4734 14.2C36.0868 13.7867 35.7801 13.2733 35.5534 12.66C35.3401 12.0333 35.2334 11.3133 35.2334 10.5C35.2334 9.74 35.3468 9.04 35.5734 8.4C35.8134 7.76 36.1534 7.21333 36.5934 6.76C37.0468 6.30667 37.5934 5.95333 38.2334 5.7C38.8734 5.44667 39.6001 5.32 40.4134 5.32C41.2001 5.32 41.9468 5.38 42.6534 5.5C43.3601 5.62 43.9601 5.74667 44.4534 5.88V14.94ZM50.2522 14.68C50.2522 15.1467 50.0922 15.5267 49.7722 15.82C49.4655 16.1133 49.0922 16.26 48.6522 16.26C48.1989 16.26 47.8189 16.1133 47.5122 15.82C47.2055 15.5267 47.0522 15.1467 47.0522 14.68C47.0522 14.2133 47.2055 13.8333 47.5122 13.54C47.8189 13.2333 48.1989 13.08 48.6522 13.08C49.0922 13.08 49.4655 13.2333 49.7722 13.54C50.0922 13.8333 50.2522 14.2133 50.2522 14.68Z" fill="#71C21B"/>
<path d="M63.3447 16H60.9247V5.54H63.3447V16ZM63.6247 2.48C63.6247 2.93333 63.478 3.29333 63.1847 3.56C62.8914 3.82667 62.5447 3.96 62.1447 3.96C61.7314 3.96 61.378 3.82667 61.0847 3.56C60.7914 3.29333 60.6447 2.93333 60.6447 2.48C60.6447 2.01333 60.7914 1.64667 61.0847 1.38C61.378 1.11333 61.7314 0.979999 62.1447 0.979999C62.5447 0.979999 62.8914 1.11333 63.1847 1.38C63.478 1.64667 63.6247 2.01333 63.6247 2.48ZM57.1447 0.48C57.6514 0.48 58.078 0.519999 58.4247 0.599999C58.7847 0.679999 59.0647 0.759999 59.2647 0.84L58.8847 2.8C58.698 2.73333 58.4714 2.67333 58.2047 2.62C57.9514 2.56667 57.6714 2.54 57.3647 2.54C56.5647 2.54 56.0114 2.75333 55.7047 3.18C55.4114 3.60667 55.2647 4.16 55.2647 4.84V5.54H59.1047V7.56H55.2647V16H52.8447V4.8C52.8447 3.44 53.198 2.38 53.9047 1.62C54.6114 0.859999 55.6914 0.48 57.1447 0.48ZM66.4384 5.88C66.9051 5.74667 67.5118 5.62 68.2584 5.5C69.0051 5.38 69.8318 5.32 70.7384 5.32C71.5918 5.32 72.3051 5.44 72.8784 5.68C73.4518 5.90667 73.9051 6.23333 74.2384 6.66C74.5851 7.07333 74.8251 7.58 74.9584 8.18C75.1051 8.76667 75.1784 9.41333 75.1784 10.12V16H72.7584V10.5C72.7584 9.94 72.7184 9.46667 72.6384 9.08C72.5718 8.68 72.4518 8.36 72.2784 8.12C72.1184 7.86667 71.8918 7.68667 71.5984 7.58C71.3184 7.46 70.9718 7.4 70.5584 7.4C70.2518 7.4 69.9318 7.42 69.5984 7.46C69.2651 7.5 69.0184 7.53333 68.8584 7.56V16H66.4384V5.88ZM81.8177 14.3C82.5643 14.3 83.131 14.26 83.5177 14.18V11.5C83.3843 11.46 83.191 11.42 82.9377 11.38C82.6843 11.34 82.4043 11.32 82.0977 11.32C81.831 11.32 81.5577 11.34 81.2777 11.38C81.011 11.42 80.7643 11.4933 80.5377 11.6C80.3243 11.7067 80.151 11.86 80.0177 12.06C79.8843 12.2467 79.8177 12.4867 79.8177 12.78C79.8177 13.3533 79.9977 13.7533 80.3577 13.98C80.7177 14.1933 81.2043 14.3 81.8177 14.3ZM81.6177 5.28C82.4177 5.28 83.091 5.38 83.6377 5.58C84.1843 5.78 84.6177 6.06 84.9377 6.42C85.271 6.78 85.5043 7.22 85.6377 7.74C85.7843 8.24667 85.8577 8.80667 85.8577 9.42V15.76C85.4843 15.84 84.9177 15.9333 84.1577 16.04C83.411 16.16 82.5643 16.22 81.6177 16.22C80.991 16.22 80.4177 16.16 79.8977 16.04C79.3777 15.92 78.931 15.7267 78.5577 15.46C78.1977 15.1933 77.911 14.8467 77.6977 14.42C77.4977 13.9933 77.3977 13.4667 77.3977 12.84C77.3977 12.24 77.511 11.7333 77.7377 11.32C77.9777 10.9067 78.2977 10.5733 78.6977 10.32C79.0977 10.0533 79.5577 9.86667 80.0777 9.76C80.611 9.64 81.1643 9.58 81.7377 9.58C82.0043 9.58 82.2843 9.6 82.5777 9.64C82.871 9.66667 83.1843 9.72 83.5177 9.8V9.4C83.5177 9.12 83.4843 8.85333 83.4177 8.6C83.351 8.34667 83.231 8.12667 83.0577 7.94C82.8977 7.74 82.6777 7.58667 82.3977 7.48C82.131 7.37333 81.791 7.32 81.3777 7.32C80.8177 7.32 80.3043 7.36 79.8377 7.44C79.371 7.52 78.991 7.61333 78.6977 7.72L78.3977 5.76C78.7043 5.65333 79.151 5.54667 79.7377 5.44C80.3243 5.33333 80.951 5.28 81.6177 5.28ZM88.8213 5.88C89.2879 5.74667 89.8946 5.62 90.6413 5.5C91.3879 5.38 92.2146 5.32 93.1213 5.32C93.9746 5.32 94.6879 5.44 95.2613 5.68C95.8346 5.90667 96.2879 6.23333 96.6213 6.66C96.9679 7.07333 97.2079 7.58 97.3413 8.18C97.4879 8.76667 97.5612 9.41333 97.5612 10.12V16H95.1413V10.5C95.1413 9.94 95.1013 9.46667 95.0213 9.08C94.9546 8.68 94.8346 8.36 94.6613 8.12C94.5013 7.86667 94.2746 7.68667 93.9813 7.58C93.7013 7.46 93.3546 7.4 92.9413 7.4C92.6346 7.4 92.3146 7.42 91.9813 7.46C91.6479 7.5 91.4013 7.53333 91.2413 7.56V16H88.8213V5.88ZM99.9405 10.78C99.9405 10.0067 100.06 9.28667 100.3 8.62C100.54 7.94 100.88 7.35333 101.32 6.86C101.774 6.36667 102.32 5.98 102.96 5.7C103.6 5.42 104.32 5.28 105.12 5.28C106.107 5.28 107.04 5.46 107.92 5.82L107.4 7.8C107.12 7.68 106.8 7.58 106.44 7.5C106.094 7.42 105.72 7.38 105.32 7.38C104.374 7.38 103.654 7.68 103.16 8.28C102.667 8.86667 102.42 9.7 102.42 10.78C102.42 11.82 102.654 12.6467 103.12 13.26C103.587 13.86 104.374 14.16 105.48 14.16C105.894 14.16 106.3 14.12 106.7 14.04C107.1 13.96 107.447 13.86 107.74 13.74L108.08 15.74C107.814 15.8733 107.407 15.9933 106.86 16.1C106.327 16.2067 105.774 16.26 105.2 16.26C104.307 16.26 103.527 16.1267 102.86 15.86C102.207 15.58 101.66 15.2 101.22 14.72C100.794 14.2267 100.474 13.6467 100.26 12.98C100.047 12.3 99.9405 11.5667 99.9405 10.78ZM109.374 10.82C109.374 9.9 109.507 9.09333 109.774 8.4C110.054 7.70667 110.421 7.13333 110.874 6.68C111.327 6.21333 111.847 5.86667 112.434 5.64C113.021 5.4 113.621 5.28 114.234 5.28C115.674 5.28 116.794 5.72667 117.594 6.62C118.407 7.51333 118.814 8.84667 118.814 10.62C118.814 10.7533 118.807 10.9067 118.794 11.08C118.794 11.24 118.787 11.3867 118.774 11.52H111.874C111.941 12.36 112.234 13.0133 112.754 13.48C113.287 13.9333 114.054 14.16 115.054 14.16C115.641 14.16 116.174 14.1067 116.654 14C117.147 13.8933 117.534 13.78 117.814 13.66L118.134 15.64C118.001 15.7067 117.814 15.78 117.574 15.86C117.347 15.9267 117.081 15.9867 116.774 16.04C116.481 16.1067 116.161 16.16 115.814 16.2C115.467 16.24 115.114 16.26 114.754 16.26C113.834 16.26 113.034 16.1267 112.354 15.86C111.674 15.58 111.114 15.2 110.674 14.72C110.234 14.2267 109.907 13.6533 109.694 13C109.481 12.3333 109.374 11.6067 109.374 10.82ZM116.394 9.74C116.394 9.40667 116.347 9.09333 116.254 8.8C116.161 8.49333 116.021 8.23333 115.834 8.02C115.661 7.79333 115.441 7.62 115.174 7.5C114.921 7.36667 114.614 7.3 114.254 7.3C113.881 7.3 113.554 7.37333 113.274 7.52C112.994 7.65333 112.754 7.83333 112.554 8.06C112.367 8.28667 112.221 8.54667 112.114 8.84C112.007 9.13333 111.934 9.43333 111.894 9.74H116.394Z" fill="white"/>
</svg>
